<?xml version="1.0" standalone="no"?>
<!DOCTYPE svg PUBLIC "-//W3C//DTD SVG 20010904//EN"
 "http://www.w3.org/TR/2001/REC-SVG-20010904/DTD/svg10.dtd">
<svg version="1.0" xmlns="http://www.w3.org/2000/svg"
 width="512.000000pt" height="512.000000pt" viewBox="0 0 512.000000 512.000000"
 preserveAspectRatio="xMidYMid meet">

<g transform="translate(0.000000,512.000000) scale(0.100000,-0.100000)"
fill="#000000" stroke="none">
<path d="M2082 4913 l3 -208 148 -3 147 -3 0 211 0 210 -150 0 -150 0 2 -207z"/>
<path d="M1488 4840 l-108 -100 137 -150 c75 -82 139 -150 142 -150 5 0 156
132 204 179 17 17 13 24 -118 167 -75 82 -139 150 -143 151 -4 1 -55 -43 -114
-97z"/>
<path d="M2716 4791 c-75 -82 -136 -151 -136 -154 0 -10 212 -198 220 -195 11
4 270 291 270 299 0 5 -164 158 -201 187 -14 11 -34 -7 -153 -137z"/>
<path d="M2131 4344 c-113 -30 -221 -114 -275 -213 -56 -104 -56 -91 -56
-1141 l0 -964 -91 134 c-104 155 -124 178 -198 227 -171 114 -401 115 -570 2
-113 -75 -193 -192 -221 -320 -19 -85 -9 -221 22 -295 28 -69 794 -1283 870
-1381 140 -178 353 -310 598 -370 97 -24 1098 -31 1245 -9 453 68 797 382 928
846 21 73 22 94 25 884 3 786 2 812 -17 876 -69 227 -305 349 -552 285 -23 -6
-27 -3 -33 22 -18 71 -123 191 -204 232 -96 49 -213 63 -312 37 -30 -8 -55
-14 -55 -13 0 1 -13 28 -28 59 -33 64 -122 155 -185 187 -94 48 -225 62 -319
35 l-23 -6 0 250 c0 148 -5 273 -11 304 -52 242 -301 396 -538 332z m177 -304
c18 -11 41 -34 52 -52 19 -32 20 -52 20 -800 l0 -768 150 0 150 0 0 323 c0
354 2 366 63 411 39 29 115 29 154 0 61 -45 63 -57 63 -411 l0 -323 150 0 150
0 0 191 c0 151 3 198 15 222 47 96 186 100 240 7 18 -31 20 -56 23 -228 l4
-193 146 3 147 3 6 63 c5 53 11 69 36 94 55 55 141 54 197 -2 l31 -30 3 -763
c2 -676 1 -770 -14 -837 -65 -300 -289 -535 -591 -622 -77 -23 -87 -23 -633
-23 -593 0 -587 0 -720 52 -100 40 -181 96 -261 181 -60 64 -146 192 -467 699
-216 342 -397 635 -403 653 -18 50 -7 142 22 184 69 104 217 131 309 58 21
-17 177 -240 390 -555 l355 -526 5 1459 c5 1456 5 1459 26 1487 44 60 123 79
182 43z"/>
<path d="M1149 4273 c0 -10 -6 -74 -13 -143 -7 -69 -11 -128 -7 -132 6 -6 321
-38 379 -38 l29 0 13 141 c7 78 8 144 4 149 -7 6 -341 40 -391 40 -7 0 -13 -8
-14 -17z"/>
<path d="M3068 4271 c-91 -9 -168 -18 -171 -21 -5 -7 21 -281 28 -288 5 -6
397 27 404 34 2 2 -2 69 -9 149 l-13 145 -36 -1 c-20 -1 -111 -9 -203 -18z"/>
</g>
</svg>
